# Blender 4.5.3 LTS
# www.blender.org
mtllib pavement.mtl
o Cube
v 5.608120 0.066571 -5.608120
v 5.608120 -0.066571 -5.608120
v 5.608120 0.066571 5.608120
v 5.608120 -0.066571 5.608120
v -5.608120 0.066571 -5.608120
v -5.608120 -0.066571 -5.608120
v -5.608120 0.066571 5.608120
v -5.608120 -0.066571 5.608120
v -5.608120 -0.066571 -5.031457
v 5.608120 0.066571 -5.031457
v -5.608120 0.066571 -5.031457
v 5.608120 -0.066571 -5.031457
v -5.608120 0.214395 -5.031457
v -5.608120 0.254235 -5.086888
v -5.608120 0.254235 -5.552690
v -5.608120 0.214395 -5.608120
v 5.608120 0.214395 -5.608120
v 5.608120 0.254235 -5.552690
v 5.608120 0.254235 -5.086888
v 5.608120 0.214395 -5.031457
v -2.921612 0.066571 -3.212331
v -2.430042 0.066571 -2.422921
v -1.799666 0.066571 -2.445608
v -1.229472 0.066571 -2.135847
v -0.837779 0.066571 -1.356408
v -0.313837 0.066571 -0.208546
v -0.193777 0.066571 0.833547
v -0.959265 0.066571 1.639250
v -1.926265 0.066571 1.659654
v -2.981650 0.066571 1.696525
v -3.767695 0.066571 1.534489
v -4.235667 0.066571 0.866028
v -4.449499 0.066571 0.253071
v -4.429992 0.066571 -0.437732
v -4.002023 0.066571 -0.893273
v -3.975118 0.066571 -1.543183
v -4.150701 0.066571 -2.195975
v -4.259943 0.066571 -3.312250
v -3.836634 0.066571 -3.566475
v -3.373789 0.066571 -3.537861
v -2.921612 0.028213 -3.212331
v -2.430042 0.028213 -2.422921
v -1.799666 0.028213 -2.445608
v -1.229472 0.028213 -2.135847
v -0.837779 0.028213 -1.356408
v -0.313837 0.028213 -0.208546
v -0.193777 0.028213 0.833547
v -0.959265 0.028213 1.639250
v -1.926265 0.028213 1.659654
v -2.981650 0.028213 1.696525
v -3.767695 0.028213 1.534489
v -4.235667 0.028213 0.866028
v -4.449499 0.028213 0.253071
v -4.429992 0.028213 -0.437732
v -4.002023 0.028213 -0.893273
v -3.975118 0.028213 -1.543183
v -4.150701 0.028213 -2.195975
v -4.259943 0.028213 -3.312250
v -3.836634 0.028213 -3.566475
v -3.373789 0.028213 -3.537861
vn -0.0000 1.0000 -0.0000
vn -0.0000 -0.0000 1.0000
vn -1.0000 -0.0000 -0.0000
vn -0.0000 -1.0000 -0.0000
vn 1.0000 -0.0000 -0.0000
vn -0.0000 -0.0000 -1.0000
vn -0.0000 0.9999 -0.0117
vn -0.0000 0.5710 -0.8209
vn -0.0000 0.5710 0.8209
vn -0.0000 0.9999 0.0117
vn -0.5843 -0.0000 0.8116
vn 0.9996 -0.0000 0.0282
vn -0.9934 -0.0000 0.1145
vn 0.7288 -0.0000 0.6847
vn -0.7250 -0.0000 -0.6888
vn 0.9991 -0.0000 0.0414
vn -0.0211 -0.0000 -0.9998
vn -0.8489 -0.0000 0.5286
vn 0.9657 -0.0000 -0.2597
vn -0.0349 -0.0000 -0.9994
vn 0.0360 -0.0000 0.9994
vn 0.9952 -0.0000 -0.0974
vn 0.2019 -0.0000 -0.9794
vn -0.4774 -0.0000 0.8787
vn 0.5149 -0.0000 0.8573
vn 0.8192 -0.0000 -0.5735
vn -0.8935 -0.0000 0.4490
vn -0.0617 -0.0000 0.9981
vn 0.9442 -0.0000 -0.3294
vn -0.9097 -0.0000 0.4152
vt 0.625000 0.512853
vt 0.875000 0.512853
vt 0.849175 0.630641
vt 0.848741 0.615243
vt 0.839201 0.605090
vt 0.838602 0.590604
vt 0.842515 0.576054
vt 0.844950 0.551173
vt 0.835515 0.545506
vt 0.825199 0.546144
vt 0.815120 0.553400
vt 0.804163 0.570995
vt 0.790113 0.570490
vt 0.777404 0.577394
vt 0.768673 0.594767
vt 0.756995 0.620352
vt 0.754319 0.643579
vt 0.625000 0.750000
vt 0.375000 0.750000
vt 0.625000 1.000000
vt 0.375000 1.000000
vt 0.375000 0.237147
vt 0.625000 0.237147
vt 0.625000 0.250000
vt 0.375000 0.250000
vt 0.125000 0.512853
vt 0.375000 0.512853
vt 0.125000 0.750000
vt 0.625000 0.500000
vt 0.375000 0.500000
vt 0.125000 0.500000
vt 0.375000 0.000000
vt 0.625000 0.000000
vt 0.625000 0.248873
vt 0.625000 0.501164
vt 0.625000 0.500000
vt 0.625000 0.250000
vt 0.875000 0.512853
vt 0.625000 0.512853
vt 0.625000 0.511618
vt 0.875000 0.511618
vt 0.625000 0.238382
vt 0.875000 0.501235
vt 0.844409 0.644303
vt 0.833979 0.659202
vt 0.816458 0.662814
vt 0.792935 0.661992
vt 0.771381 0.661537
vt 0.875000 0.750000
s 0
usemtl Material
f 10/1/1 11/2/1 33/3/1 34/4/1 35/5/1 36/6/1 37/7/1 38/8/1 39/9/1 40/10/1 21/11/1 22/12/1 23/13/1 24/14/1 25/15/1 26/16/1 27/17/1 3/18/1
f 4/19/2 3/18/2 7/20/2 8/21/2
f 9/22/3 11/23/3 5/24/3 6/25/3
f 9/26/4 12/27/4 4/19/4 8/28/4
f 12/27/5 10/1/5 3/18/5 4/19/5
f 6/25/6 5/24/6 1/29/6 2/30/6
f 2/30/5 1/29/5 10/1/5 12/27/5
f 6/31/4 2/30/4 12/27/4 9/26/4
f 8/32/3 7/33/3 11/23/3 9/22/3
s 1
f 15/34/7 18/35/7 17/36/8 16/37/8
f 13/38/9 20/39/9 19/40/10 14/41/10
s 0
f 5/24/3 11/23/3 13/23/3 14/42/3 15/34/3 16/37/3
s 1
f 18/35/7 15/43/7 14/41/10 19/40/10
f 11/2/2 10/1/2 20/39/9 13/38/9
f 1/29/6 5/24/6 16/37/8 17/36/8
s 0
f 10/1/5 1/29/5 17/36/5 18/35/5 19/40/5 20/39/5
f 52/44/1 51/45/1 50/46/1 49/47/1 48/48/1 47/17/1 46/16/1 45/15/1 44/14/1 43/13/1 42/12/1 41/11/1 60/10/1 59/9/1 58/8/1 57/7/1 56/6/1 55/5/1 54/4/1 53/3/1
f 3/18/1 27/17/1 28/48/1 29/47/1 30/46/1 31/45/1 32/44/1 33/3/1 11/2/1 7/49/1
f 21/11/11 40/10/11 60/10/11 41/11/11
f 34/4/12 33/3/12 53/3/12 54/4/12
f 27/17/13 26/16/13 46/16/13 47/17/13
f 35/5/14 34/4/14 54/4/14 55/5/14
f 28/48/15 27/17/15 47/17/15 48/48/15
f 36/6/16 35/5/16 55/5/16 56/6/16
f 29/47/17 28/48/17 48/48/17 49/47/17
f 22/12/18 21/11/18 41/11/18 42/12/18
f 37/7/19 36/6/19 56/6/19 57/7/19
f 30/46/20 29/47/20 49/47/20 50/46/20
f 23/13/21 22/12/21 42/12/21 43/13/21
f 38/8/22 37/7/22 57/7/22 58/8/22
f 31/45/23 30/46/23 50/46/23 51/45/23
f 24/14/24 23/13/24 43/13/24 44/14/24
f 39/9/25 38/8/25 58/8/25 59/9/25
f 32/44/26 31/45/26 51/45/26 52/44/26
f 25/15/27 24/14/27 44/14/27 45/15/27
f 40/10/28 39/9/28 59/9/28 60/10/28
f 33/3/29 32/44/29 52/44/29 53/3/29
f 26/16/30 25/15/30 45/15/30 46/16/30
